<svg width="227" height="47" viewBox="0 0 227 47" fill="none" xmlns="http://www.w3.org/2000/svg">
<path d="M219.874 1.2002H226.914V46.0002H219.874V1.2002Z" fill="black"/>
<path d="M195.186 1.2002H205.555C209.053 1.2002 211.677 2.13886 213.426 4.0162C215.176 5.89353 216.051 8.64553 216.051 12.2722V16.6882C216.051 20.3149 215.176 23.0669 213.426 24.9442C211.677 26.8215 209.053 27.7602 205.555 27.7602H202.227V46.0002H195.186V1.2002ZM205.555 21.3602C206.707 21.3602 207.56 21.0402 208.115 20.4002C208.712 19.7602 209.01 18.6722 209.01 17.1362V11.8242C209.01 10.2882 208.712 9.2002 208.115 8.5602C207.56 7.9202 206.707 7.6002 205.555 7.6002H202.227V21.3602H205.555Z" fill="black"/>
<path d="M174.939 1.2002H184.475L191.771 46.0002H184.731L183.451 37.1042V37.2322H175.451L174.171 46.0002H167.643L174.939 1.2002ZM182.619 31.1522L179.483 9.0082H179.355L176.283 31.1522H182.619Z" fill="black"/>
<path d="M147.249 1.2002H154.289V39.6002H165.873V46.0002H147.249V1.2002Z" fill="black"/>
<path d="M122.419 46.6401C119.048 46.6401 116.467 45.6801 114.675 43.7601C112.926 41.8401 112.051 39.1307 112.051 35.6321V11.5681C112.051 8.06939 112.926 5.36006 114.675 3.44006C116.467 1.52006 119.048 0.560059 122.419 0.560059C125.79 0.560059 128.35 1.52006 130.099 3.44006C131.891 5.36006 132.787 8.06939 132.787 11.5681V16.3041H126.131V11.1201C126.131 8.34673 124.958 6.96006 122.611 6.96006C120.264 6.96006 119.091 8.34673 119.091 11.1201V36.1441C119.091 38.8747 120.264 40.2401 122.611 40.2401C124.958 40.2401 126.131 38.8747 126.131 36.1441V29.2961H132.787V35.6321C132.787 39.1307 131.891 41.8401 130.099 43.7601C128.35 45.6801 125.79 46.6401 122.419 46.6401Z" fill="black"/>
<path d="M100.186 1.2002H107.226V46.0002H100.186V1.2002Z" fill="black"/>
<path d="M74.374 1.2002H84.806C88.4327 1.2002 91.078 2.05353 92.742 3.7602C94.406 5.4242 95.238 8.00553 95.238 11.5042V14.2562C95.238 18.9069 93.702 21.8509 90.63 23.0882V23.2162C92.3367 23.7282 93.5313 24.7735 94.214 26.3522C94.9393 27.9309 95.302 30.0429 95.302 32.6882V40.5602C95.302 41.8402 95.3447 42.8855 95.43 43.6962C95.5153 44.4642 95.7287 45.2322 96.07 46.0002H88.902C88.646 45.2749 88.4753 44.5922 88.39 43.9522C88.3047 43.3122 88.262 42.1602 88.262 40.4962V32.3042C88.262 30.2562 87.9207 28.8269 87.238 28.0162C86.598 27.2055 85.4673 26.8002 83.846 26.8002H81.414V46.0002H74.374V1.2002ZM83.974 20.4002C85.382 20.4002 86.4273 20.0375 87.11 19.3122C87.8353 18.5869 88.198 17.3709 88.198 15.6642V12.2082C88.198 10.5869 87.8993 9.41353 87.302 8.6882C86.7473 7.96286 85.8513 7.6002 84.614 7.6002H81.414V20.4002H83.974Z" fill="black"/>
<path d="M48.374 1.2002H59.126C62.6247 1.2002 65.2487 2.13886 66.998 4.0162C68.7473 5.89353 69.622 8.64553 69.622 12.2722V34.9282C69.622 38.5549 68.7473 41.3069 66.998 43.1842C65.2487 45.0615 62.6247 46.0002 59.126 46.0002H48.374V1.2002ZM58.998 39.6002C60.15 39.6002 61.0247 39.2589 61.622 38.5762C62.262 37.8935 62.582 36.7842 62.582 35.2482V11.9522C62.582 10.4162 62.262 9.30686 61.622 8.6242C61.0247 7.94153 60.15 7.6002 58.998 7.6002H55.414V39.6002H58.998Z" fill="black"/>
<path d="M25.124 1.2002H44.324V7.6002H32.164V19.4402H41.828V25.8402H32.164V39.6002H44.324V46.0002H25.124V1.2002Z" fill="black"/>
<path d="M10.544 46.6401C7.17334 46.6401 4.592 45.6801 2.8 43.7601C1.05067 41.8401 0.176003 39.1307 0.176003 35.6321V11.5681C0.176003 8.06939 1.05067 5.36006 2.8 3.44006C4.592 1.52006 7.17334 0.560059 10.544 0.560059C13.9147 0.560059 16.4747 1.52006 18.224 3.44006C20.016 5.36006 20.912 8.06939 20.912 11.5681V16.3041H14.256V11.1201C14.256 8.34673 13.0827 6.96006 10.736 6.96006C8.38934 6.96006 7.216 8.34673 7.216 11.1201V36.1441C7.216 38.8747 8.38934 40.2401 10.736 40.2401C13.0827 40.2401 14.256 38.8747 14.256 36.1441V29.2961H20.912V35.6321C20.912 39.1307 20.016 41.8401 18.224 43.7601C16.4747 45.6801 13.9147 46.6401 10.544 46.6401Z" fill="black"/>
</svg>
